<?xml version="1.0" encoding="UTF-8"?>
<!-- Generated by Pixelmator Pro 3.7 -->
<svg width="4627" height="1455" viewBox="0 0 4627 1455" xmlns="http://www.w3.org/2000/svg">
    <path id="Path" fill="#0a0a0a" fill-rule="evenodd" stroke="none" d="M 0 0 L 326 0 L 774 1045 L 775 1045 L 1064 286 L 1140 86 L 1164 24 C 1167 16 1168 5 1174 0 L 1446 0 L 1716 707 L 1557 1082 L 1556 1082 L 1320 455 L 1299 455 L 924 1455 L 623 1455 L 0 0 Z M 2347 0 L 2691 0 L 2028 1455 L 1709 1455 L 1697 1426 L 2347 0 Z M 2973 0 L 3320 0 L 3983 1455 L 3640 1455 L 3150 377 L 3149 378 L 2794 1154 L 3159 1151 L 3290 1455 L 2312 1455 L 2973 0 Z M 3624 0 L 3964 0 L 4075 242 L 3731 242 L 3624 0 Z M 3836 471 L 4150 471 C 4159 471 4173 469 4180 472 L 4627 1455 L 4284 1455 L 3836 471 Z"/>
</svg>
