<?xml version="1.0" encoding="UTF-8"?>
<!-- Generated by Pixelmator Pro 3.7 -->
<svg width="222" height="222" viewBox="0 0 222 222" xmlns="http://www.w3.org/2000/svg">
    <path id="Path" fill="#000000" fill-rule="evenodd" stroke="none" d="M 24 62 L 105 62 L 105 106 L 24 106 C 11 106 3 95 3 84 C 3 76 8 62 24 62 Z M 118 62 L 162 62 L 162 111 C 162 117 175 117 175 111 L 175 62 L 219 62 L 219 108 C 219 176 118 175 118 113 L 118 62 Z M 3 160 L 3 116 L 84 116 C 100 116 105 131 105 139 C 105 149 96 160 86 160 L 3 160 Z"/>
</svg>
