<?xml version="1.0" encoding="UTF-8"?>
<!-- Generated by Pixelmator Pro 3.7 -->
<svg width="250" height="250" viewBox="0 0 250 250" xmlns="http://www.w3.org/2000/svg">
    <path id="Path" fill="#000000" stroke="none" d="M 46.278599 75.8302 C 45.257999 77.781494 43.819801 79.283401 41.964001 80.3414 C 40.1063 81.397598 37.9547 81.927597 35.5033 81.927597 C 33.128799 81.927597 30.9116 81.3508 28.8517 80.199097 C 26.7899 79.051208 25.259899 77.528702 24.256201 75.635498 C 23.329201 77.528702 21.8367 79.051208 19.7749 80.199097 C 17.716801 81.3508 15.4977 81.927597 13.1213 81.927597 C 10.6719 81.927597 8.4996 81.397598 6.60634 80.3414 C 4.71496 79.283401 3.24679 77.781494 2.20746 75.8302 C 1.17188 73.882599 0.649414 71.644806 0.649414 69.120499 L 0.649414 51.804001 L 7.88724 51.804001 L 7.88724 68.787109 C 7.88724 70.719696 8.47338 72.247803 9.64192 73.380798 C 10.8105 74.511902 12.3592 75.077393 14.2917 75.077393 C 16.222401 75.077393 17.752399 74.511902 18.885401 73.380798 C 20.0165 72.247803 20.5839 70.719696 20.5839 68.787109 L 20.5839 51.804001 L 27.875999 51.804001 L 27.875999 68.787109 C 27.875999 70.719696 28.469601 72.247803 29.6588 73.380798 C 30.846001 74.511902 32.422798 75.077393 34.390999 75.077393 C 36.246799 75.077393 37.7393 74.504395 38.872299 73.352692 C 40.005199 72.202911 40.570801 70.680389 40.570801 68.787109 L 40.570801 51.804001 L 47.808601 51.804001 L 47.808601 69.120499 C 47.808601 71.644806 47.301102 73.882599 46.278599 75.8302 Z"/>
    <path id="path1" fill="#000000" stroke="none" d="M 85.499199 51.804794 L 85.499199 81.591309 L 78.259499 81.591309 L 78.259499 76.860901 C 77.184601 78.492004 75.800697 79.746704 74.111603 80.6194 C 72.424301 81.492004 70.482399 81.926498 68.293198 81.926498 C 65.4711 81.926498 62.993599 81.287903 60.858799 80.007004 C 58.7258 78.726105 57.0648 76.926498 55.879398 74.606293 C 54.690201 72.286011 54.0947 69.621201 54.0947 66.615601 C 54.0947 63.645599 54.690201 61.018204 55.879398 58.737305 C 57.0648 56.452698 58.7258 54.681198 60.858799 53.419006 C 62.993599 52.158691 65.4543 51.527603 68.238899 51.527603 C 70.429901 51.527603 72.377502 51.962097 74.085403 52.836609 C 75.791397 53.707397 77.184601 54.960205 78.259499 56.593109 L 78.259499 51.804794 L 85.499199 51.804794 Z M 75.643402 73.656799 C 77.165901 72.192398 78.038597 70.254211 78.259499 67.840302 L 78.259499 65.726105 C 78.038597 63.312195 77.165901 61.373993 75.643402 59.905899 C 74.121002 58.441498 72.190201 57.707397 69.853203 57.707397 C 67.366302 57.707397 65.341904 58.550095 63.783901 60.239197 C 62.2258 61.930206 61.426201 64.110001 61.390598 66.78421 C 61.426201 69.45459 62.2258 71.6362 63.783901 73.323502 C 65.341904 75.016403 67.366302 75.857208 69.853203 75.857208 C 72.190201 75.857208 74.121002 75.125 75.643402 73.656799 Z"/>
    <path id="path2" fill="#000000" stroke="none" d="M 105.904999 53.113403 C 107.628998 52.092804 109.641998 51.564697 111.945999 51.525299 L 111.945999 58.542206 C 108.862999 58.356796 106.406998 59.070297 104.569 60.684509 C 102.731003 62.300598 101.810997 64.480408 101.810997 67.2276 L 101.810997 81.592804 L 94.575104 81.592804 L 94.575104 51.804398 L 101.810997 51.804398 L 101.810997 57.538391 C 102.815002 55.611496 104.178001 54.135803 105.904999 53.113403 Z"/>
    <path id="path3" fill="#000000" stroke="none" d="M 162.501999 75.8302 C 161.479996 77.781494 160.044006 79.283401 158.188004 80.3414 C 156.328003 81.397598 154.177994 81.927597 151.729004 81.927597 C 149.354004 81.927597 147.134995 81.3508 145.074005 80.199097 C 143.014008 79.051208 141.483994 77.528702 140.479996 75.635498 C 139.552994 77.528702 138.059998 79.051208 135.998993 80.199097 C 133.938995 81.3508 131.722 81.927597 129.345001 81.927597 C 126.896004 81.927597 124.723 81.397598 122.830002 80.3414 C 120.939003 79.283401 119.471001 77.781494 118.431 75.8302 C 117.393997 73.882599 116.873001 71.644806 116.873001 69.120499 L 116.873001 51.804001 L 124.111 51.804001 L 124.111 68.787109 C 124.111 70.719696 124.696999 72.247803 125.865997 73.380798 C 127.036003 74.511902 128.582993 75.077393 130.514008 75.077393 C 132.444 75.077393 133.975998 74.511902 135.106995 73.380798 C 136.240005 72.247803 136.804001 70.719696 136.804001 68.787109 L 136.804001 51.804001 L 144.100006 51.804001 L 144.100006 68.787109 C 144.100006 70.719696 144.692001 72.247803 145.880997 73.380798 C 147.070007 74.511902 148.647003 75.077393 150.613007 75.077393 C 152.468994 75.077393 153.960999 74.504395 155.095993 73.352692 C 156.225006 72.202911 156.796005 70.680389 156.796005 68.787109 L 156.796005 51.804001 L 164.031006 51.804001 L 164.031006 69.120499 C 164.031006 71.644806 163.524994 73.882599 162.501999 75.8302 Z"/>
    <path id="path4" fill="#000000" stroke="none" d="M 178.899002 40.224197 C 179.677994 41.042603 180.067993 42.081909 180.067993 43.344101 C 180.067993 44.566895 179.677994 45.589401 178.899002 46.403992 C 178.119995 47.220505 177.136993 47.628693 175.947998 47.628693 C 174.759995 47.628693 173.776993 47.220505 172.998001 46.403992 C 172.218994 45.589401 171.826004 44.566895 171.826004 43.344101 C 171.826004 42.081909 172.218994 41.042603 172.998001 40.224197 C 173.776993 39.407806 174.759995 38.999496 175.947998 38.999496 C 177.136993 38.999496 178.119995 39.407806 178.899002 40.224197 Z M 172.384003 51.804794 L 179.623993 51.804794 L 179.623993 81.591309 L 172.384003 81.591309 L 172.384003 51.804794 Z"/>
    <path id="path5" fill="#000000" stroke="none" d="M 201.927002 57.929504 C 199.513 57.929504 197.557999 58.747803 196.052002 60.380798 C 194.550995 62.011902 193.798004 64.129898 193.798004 66.727203 C 193.798004 69.399506 194.550995 71.551208 196.052002 73.186005 C 197.557999 74.820892 199.513 75.635498 201.927002 75.635498 C 205.490997 75.635498 208.160995 74.466904 209.945999 72.129898 L 214.453003 75.858307 C 213.119995 77.787201 211.356003 79.274002 209.167007 80.311493 C 206.973999 81.3508 204.432999 81.871399 201.537003 81.871399 C 198.604996 81.871399 195.996002 81.240295 193.714996 79.97821 C 191.432999 78.717896 189.658997 76.944504 188.393005 74.661697 C 187.134995 72.376999 186.505997 69.753403 186.505997 66.783401 C 186.505997 63.775909 187.143997 61.122406 188.425003 58.820892 C 189.705994 56.519409 191.488998 54.736603 193.770996 53.474396 C 196.052002 52.212204 198.677994 51.583008 201.649994 51.583008 C 204.358994 51.583008 206.779007 52.054901 208.916 53.000595 C 211.048996 53.950104 212.783005 55.292801 214.119995 57.038101 L 209.720993 61.216003 C 207.718994 59.024994 205.117996 57.929504 201.927002 57.929504 Z"/>
    <path id="path6" fill="#000000" stroke="none" d="M 240.701996 81.592804 L 232.628006 68.564697 L 228.063995 73.354889 L 228.063995 81.592804 L 220.824005 81.592804 L 220.824005 40.278107 L 228.063995 40.278107 L 228.063995 64.222 L 240.313004 51.862396 L 248.662994 51.862396 L 237.639008 63.332504 L 249.332993 81.592804 L 240.701996 81.592804 Z"/>
    <path id="path7" fill="#000000" stroke="none" d="M 118.009003 146.195007 L 118.009003 101.546997 C 118.009003 99.805496 116.597 98.391602 114.853996 98.391602 L 26.975599 98.391602 C 12.9457 98.391602 0.911958 109.36499 0.655404 123.393997 C 0.391359 137.686005 11.8951 149.352005 26.1273 149.352005 L 114.853996 149.350006 C 116.597 149.350006 118.009003 147.938004 118.009003 146.195007 Z"/>
    <path id="path8" fill="#000000" stroke="none" d="M 0.649979 208.128006 L 0.649979 163.479996 C 0.649979 161.738007 2.06196 160.326004 3.80541 160.326004 L 91.683701 160.324997 C 105.713997 160.324997 117.747002 171.298004 118.003998 185.326004 C 118.267998 199.617004 106.764 211.285004 92.531998 211.285004 L 3.80541 211.283005 C 2.06196 211.283005 0.649979 209.871002 0.649979 208.128006 Z"/>
    <path id="path9" fill="#000000" stroke="none" d="M 183.039001 152.492996 L 183.039001 101.54599 C 183.039001 99.804001 181.626999 98.390106 179.884003 98.390106 L 135.660995 98.390106 C 133.917999 98.390106 132.503998 99.805908 132.507996 101.550995 L 132.587997 152.938995 C 132.587997 185.160004 158.707993 211.281998 190.929001 211.281998 C 223.149994 211.281998 249.270004 185.160004 249.270004 152.938995 L 249.350006 101.550995 C 249.352005 99.805908 247.938004 98.390106 246.195007 98.390106 L 201.970001 98.390106 C 200.229996 98.390106 198.817001 99.804001 198.817001 101.54599 L 198.817001 152.492996 C 198.817001 163.585007 183.039001 163.598007 183.039001 152.492996 Z"/>
</svg>
