<?xml version="1.0" encoding="UTF-8"?>
<!-- Generated by Pixelmator Pro 3.7 -->
<svg width="4800" height="4800" viewBox="0 0 4800 4800" xmlns="http://www.w3.org/2000/svg">
    <path id="Path" fill="#0a0a0a" fill-rule="evenodd" stroke="none" d="M 100 1674 L 426 1674 L 874 2719 L 875 2719 L 1164 1960 L 1240 1760 L 1264 1698 C 1267 1690 1268 1679 1274 1674 L 1546 1674 L 1816 2381 L 1657 2756 L 1656 2756 L 1420 2129 L 1399 2129 L 1024 3129 L 723 3129 L 100 1674 Z M 2447 1674 L 2791 1674 L 2128 3129 L 1809 3129 L 1797 3100 L 2447 1674 Z M 3073 1674 L 3420 1674 L 4083 3129 L 3740 3129 L 3250 2051 L 3249 2052 L 2894 2828 L 3259 2825 L 3390 3129 L 2412 3129 L 3073 1674 Z M 3724 1674 L 4064 1674 L 4175 1916 L 3831 1916 L 3724 1674 Z M 3936 2145 L 4250 2145 C 4259 2145 4273 2143 4280 2146 L 4727 3129 L 4384 3129 L 3936 2145 Z"/>
</svg>
