<svg xmlns="http://www.w3.org/2000/svg" viewBox="0 0 4800 4800">
  <rect width="4800" height="4800" rx="240" ry="240" style="fill: #fff" />
  <path
    d="M100 1674h326l448 1045h1l289-759 76-200 24-62c3-8 4-19 10-24h272l270 707-159 375h-1l-236-627h-21l-375 1000H723L100 1674Zm2347 0h344l-663 1455h-319l-12-29 650-1426Zm626 0h347l663 1455h-343l-490-1078-1 1-355 776 365-3 131 304h-978l661-1455Zm651 0h340l111 242h-344l-107-242Zm212 471h314c9 0 23-2 30 1l447 983h-343l-448-984Z"
    style="fill: #3c3c3c; fill-rule: evenodd"
  />
</svg>
