<svg
  xmlns="http://www.w3.org/2000/svg"
  width="256"
  height="256"
  viewBox="0 0 256 256"
>
  <defs>
    <style>
      .cls-1 {
        fill-rule: evenodd;
      }
    </style>
  </defs>
  <path
    id="colour-fill"
    class="cls-1"
    d="M41.138,79.278h81.183c-0.275,15.319,0,29.225,0,43.838,0-.019-81.244-0.018-81.183,0-13.312,0-21.09-11.114-20.926-22.529C20.031,93,24.524,79.278,41.138,79.278Zm94.173,0H179.15v48.709c0,5.957,12.989,6.006,12.989,0V79.278h43.839V124.74c0,68.194-100.667,66.888-100.667,4.871V79.278ZM20.031,176.7V132.858h81.183c15.4,0.338,21.107,14.7,21.107,22.732,0,10.721-9.472,21.107-19.483,21.107C101.551,176.7,23.561,176.769,20.031,176.7Z"
  />
</svg>
